<svg width="199" height="53" viewBox="0 0 199 53" fill="none" xmlns="http://www.w3.org/2000/svg">
<g clip-path="url(#clip0_135_1122)">
<path d="M142.541 43.1478C142.102 42.9169 141.363 42.6411 140.659 42.6411C138.793 42.6411 137.441 43.9472 137.441 46.0078C137.441 48.0683 138.934 49.4307 140.71 49.4307C141.409 49.4307 142.057 49.2393 142.536 48.9804L143.043 50.1063C142.485 50.4329 141.51 50.7256 140.631 50.7256C137.48 50.7256 135.496 48.6538 135.496 45.9852C135.496 43.5137 137.469 41.3462 140.659 41.3462C141.606 41.3462 142.485 41.684 143.111 42.0443L142.541 43.1478Z" fill="#1D2939"/>
<path d="M144.948 45.9064C144.948 43.3673 146.87 41.3462 149.474 41.3462C152.078 41.3462 154 43.3673 154 45.9064C154 48.6144 152.264 50.7256 149.474 50.7256C146.684 50.7256 144.948 48.6144 144.948 45.9064ZM152.056 45.9064C152.056 44.2343 151.289 42.6411 149.474 42.6411C147.659 42.6411 146.893 44.2343 146.893 45.9064C146.893 47.5785 147.569 49.4307 149.474 49.4307C151.379 49.4307 152.056 47.6404 152.056 45.9064Z" fill="#1D2939"/>
<path d="M156.671 41.4983H158.503V49.352H162.11V50.5681H156.677V41.4983H156.671Z" fill="#1D2939"/>
<path d="M164.962 41.4983H166.794V49.352H170.401V50.5681H164.968V41.4983H164.962Z" fill="#1D2939"/>
<path d="M178.123 42.72H175.074V45.2084H178.056V46.4245H175.074V49.352H178.681V50.5681H173.248V41.4983H178.123V42.7144V42.72Z" fill="#1D2939"/>
<path d="M189.503 46.4244V50.1683C188.528 50.4948 187.508 50.7256 186.471 50.7256C183.331 50.7256 181.347 48.6538 181.347 45.9852C181.347 43.5137 183.32 41.3462 186.521 41.3462C187.519 41.3462 188.517 41.6558 189.114 42.0443L188.528 43.1196C188.037 42.8606 187.271 42.6411 186.566 42.6411C184.622 42.6411 183.286 43.9472 183.286 46.0078C183.286 48.0683 184.819 49.4307 186.386 49.4307C186.876 49.4307 187.282 49.3801 187.671 49.2112V46.4244H189.497H189.503Z" fill="#1D2939"/>
<path d="M198.177 42.72H195.128V45.2084H198.11V46.4245H195.128V49.352H198.735V50.5681H193.302V41.4983H198.177V42.7144V42.72Z" fill="#1D2939"/>
<path d="M67.404 45.4953C67.404 45.4953 62.523 43.9922 60.6856 43.6656C60.6856 43.6656 60.6856 43.6656 60.6912 43.6656C53.9615 42.0161 34.1612 39.6853 19.1406 43.204C33.9809 38.7338 54.3898 39.781 61.6775 42.489C55.7876 38.0976 48.4379 36.1272 40.8346 35.6768C43.664 36.7183 46.9387 38.0413 48.979 39.5389C47.4065 38.9365 41.246 36.5325 37.0301 35.5754C32.476 35.5923 27.8993 36.099 23.5707 36.8985C26.4339 37.4446 29.6804 38.1765 31.8447 39.263C30.3624 38.9646 24.9797 37.8556 20.7695 37.4671C11.464 39.4995 3.61263 42.7705 -0.00585938 45.2195C8.80928 45.9457 14.4737 48.1133 20.1382 50.1062L32.3802 45.4559C30.0129 46.8747 25.2841 49.4701 22.9225 51.1253C27.7923 52.2569 33.6371 52.3413 39.3354 51.6488C42.0126 49.487 47.0965 44.6565 47.0965 44.6565L42.4184 51.1984C47.2543 50.3652 51.8197 48.9915 55.4044 47.2406L53.9108 53.0113L59.2709 46.6382C58.6903 49.3406 60.0318 51.7671 60.0318 51.7671C60.0318 51.7671 60.4207 47.0154 61.3337 45.3321C61.7339 45.4559 62.1623 45.5911 62.1735 45.5967C64.5802 46.4918 67.4773 47.7811 67.4773 47.7811C68.0747 47.2519 67.3984 45.5066 67.3984 45.5066L67.404 45.4953Z" fill="url(#paint0_linear_135_1122)"/>
<path d="M58.082 23.1557L61.5596 15.972L53.5786 15.3921C55.5006 17.6778 57.0393 20.2957 58.0764 23.1557H58.082Z" fill="url(#paint1_linear_135_1122)"/>
<path d="M65.8484 31.9441L59.2314 27.457C59.4907 28.9152 59.6316 30.4127 59.6316 31.9441C59.6316 33.4754 59.4907 34.973 59.2314 36.4311L65.8484 31.9441Z" fill="url(#paint2_linear_135_1122)"/>
<path d="M50.4389 12.2508L49.8584 4.27881L42.6665 7.75247C45.5297 8.794 48.1506 10.3253 50.4389 12.2451V12.2508Z" fill="url(#paint3_linear_135_1122)"/>
<path d="M8.105 31.9441C8.105 30.4127 8.2459 28.9152 8.50517 27.457L1.88818 31.9441L8.50517 36.4311C8.2459 34.973 8.105 33.4754 8.105 31.9441Z" fill="url(#paint4_linear_135_1122)"/>
<path d="M14.1528 15.3921L6.17188 15.972L9.64946 23.1557C10.6922 20.2957 12.2252 17.6778 14.1472 15.3921H14.1528Z" fill="url(#paint5_linear_135_1122)"/>
<path d="M25.0644 7.75808L17.8725 4.28442L17.292 12.2564C19.5803 10.3366 22.2012 8.79961 25.0644 7.76371V7.75808Z" fill="url(#paint6_linear_135_1122)"/>
<path d="M33.8686 6.21542C35.4016 6.21542 36.9009 6.35617 38.3607 6.61515L33.8686 0L29.3765 6.60952C30.8363 6.35054 32.3355 6.20979 33.8686 6.20979V6.21542Z" fill="url(#paint7_linear_135_1122)"/>
<path d="M24.022 33.3347C23.9543 32.8787 23.9092 32.417 23.9092 31.9441C23.9092 26.607 28.2886 22.2607 33.6769 22.2607C39.0652 22.2607 43.4446 26.6013 43.4446 31.9441C43.4446 32.1355 43.4277 32.3213 43.4164 32.5071C47.7281 32.9575 51.9441 33.909 55.8669 35.5022C56.0529 34.3425 56.1544 33.1546 56.1544 31.9441C56.1544 19.5977 46.0711 9.55396 33.6825 9.55396C21.294 9.55396 11.2051 19.5977 11.2051 31.9441C11.2051 33.4529 11.3573 34.9223 11.6447 36.3467C15.4041 35.1419 19.6088 34.0835 24.022 33.3291V33.3347Z" fill="url(#paint8_linear_135_1122)"/>
<path d="M93.8102 23.1726C93.8102 29.298 89.273 34.9166 81.9233 34.9166C76.3885 34.9166 71.0059 30.7899 71.0059 23.9214C71.0059 17.0529 76.5745 12.3013 83.0506 12.3013C89.5267 12.3013 93.8102 17.3006 93.8102 23.1726ZM75.7291 22.8292C75.7291 29.7653 78.7332 32.8899 82.5151 32.8899C87.2045 32.8899 89.0814 27.6428 89.0814 23.578C89.0814 17.0811 85.8293 14.328 82.3855 14.328C77.1945 14.328 75.7234 19.7046 75.7234 22.8292H75.7291Z" fill="#1D2939"/>
<path d="M100.793 21.6132H110.054V16.0226C110.054 14.6771 109.586 14.4632 108.053 14.1141C107.647 14.0522 107.585 13.7988 107.709 13.5511L107.957 12.9262C108.053 12.7686 108.205 12.6785 108.487 12.6785H116.434C116.682 12.6785 116.998 12.7404 116.84 13.2077L116.654 13.7369C116.53 14.0803 116.276 14.1141 116.062 14.176C115.279 14.3337 114.467 14.8291 114.467 16.017V31.2009C114.467 32.5464 114.935 32.7604 116.468 33.1038C116.874 33.1657 116.936 33.4191 116.812 33.6668L116.564 34.2917C116.468 34.4494 116.316 34.5394 116.034 34.5394H108.087C107.839 34.5394 107.523 34.4775 107.681 34.0102L107.867 33.481C107.991 33.1376 108.244 33.1038 108.459 33.0419C109.242 32.8842 110.054 32.3832 110.054 31.2009V23.4823H100.793V31.2009C100.793 32.5464 101.261 32.7604 102.794 33.1038C103.2 33.1657 103.262 33.4191 103.138 33.6668L102.89 34.2917C102.794 34.4494 102.642 34.5394 102.36 34.5394H94.4131C94.1651 34.5394 93.8494 34.4775 94.0072 34.0102L94.1932 33.481C94.3172 33.1376 94.5709 33.1038 94.7851 33.0419C95.5685 32.8842 96.3801 32.3832 96.3801 31.2009V16.017C96.3801 14.6715 95.9123 14.4575 94.3792 14.1085C93.9734 14.0465 93.9114 13.7932 94.0354 13.5455L94.2834 12.9206C94.3792 12.7629 94.5314 12.6729 94.8132 12.6729H102.76C103.008 12.6729 103.324 12.7348 103.166 13.2021L102.98 13.7313C102.856 14.0747 102.603 14.1085 102.388 14.1704C101.605 14.328 100.793 14.8235 100.793 16.0114V21.6019V21.6132Z" fill="#1D2939"/>
<path d="M126.191 29.7371C126.191 32.3607 126.754 32.9574 128.473 32.9574H131.01C134.076 32.9574 134.516 30.0524 134.95 30.1763L135.733 30.424C135.857 30.4577 135.919 30.5816 135.919 30.7055V33.7681C135.919 34.2692 135.327 34.5507 134.482 34.5507H119.811C119.563 34.5507 119.247 34.4888 119.405 34.0215L119.591 33.4923C119.715 33.1488 119.968 33.1151 120.183 33.0531C120.966 32.8955 121.778 32.3944 121.778 31.2122V16.017C121.778 14.6715 121.31 14.4575 119.777 14.1085C119.371 14.0465 119.309 13.7932 119.433 13.5455L119.681 12.9206C119.777 12.7629 119.929 12.6729 120.211 12.6729H128.158C128.406 12.6729 128.721 12.7348 128.564 13.2021L128.378 13.7313C128.254 14.0747 128 14.1085 127.786 14.1704C127.002 14.328 126.191 14.8235 126.191 16.0114V29.7259V29.7371Z" fill="#1D2939"/>
<path d="M158.064 23.1726C158.064 29.298 153.526 34.9166 146.177 34.9166C140.642 34.9166 135.259 30.7899 135.259 23.9214C135.259 17.0529 140.828 12.3013 147.304 12.3013C153.78 12.3013 158.064 17.3006 158.064 23.1726ZM139.982 22.8292C139.982 29.7653 142.987 32.8899 146.769 32.8899C151.458 32.8899 153.335 27.6428 153.335 23.578C153.335 17.0811 150.083 14.328 146.639 14.328C141.448 14.328 139.977 19.7046 139.977 22.8292H139.982Z" fill="#1D2939"/>
<path d="M157.5 12.9262C157.596 12.8023 157.748 12.6785 158.03 12.6785H163.413C164.196 12.7404 164.602 13.3034 165.165 13.9565L176.771 28.5492H176.832V16.017C176.832 14.6715 176.365 14.4575 174.832 14.1085C174.426 14.0465 174.364 13.7932 174.488 13.5455L174.736 12.9206C174.832 12.7629 174.984 12.6729 175.266 12.6729H180.958C181.206 12.6729 181.522 12.7348 181.364 13.2021L181.178 13.7313C181.054 14.0747 180.8 14.1085 180.586 14.1704C179.803 14.328 178.991 14.8235 178.991 16.0114V33.5092C178.991 34.1341 178.867 34.5394 178.304 34.5394H176.145C175.987 34.5394 175.801 34.3199 174.832 33.132L162.945 18.01H162.883V31.1953C162.883 32.5408 163.351 32.7547 164.884 33.0982C165.289 33.1601 165.351 33.4134 165.227 33.6612L164.979 34.2861C164.884 34.4437 164.731 34.5338 164.45 34.5338H158.757C158.509 34.5338 158.193 34.4719 158.351 34.0046L158.537 33.4754C158.661 33.132 158.915 33.0982 159.129 33.0362C159.912 32.8786 160.724 32.3775 160.724 31.1953V16.0508C159.817 15.1162 158.661 14.4913 157.816 14.238C157.19 14.0522 157.128 13.8326 157.252 13.5511L157.5 12.9262Z" fill="#1D2939"/>
<path d="M189.244 21.7989H196.469C196.875 21.7989 197.061 21.9847 196.875 22.2662L196.312 23.2346C196.092 23.578 195.81 23.6737 195.308 23.6737H189.238V29.7371C189.238 32.0791 189.802 32.6759 191.521 32.6759H194.085C197.151 32.6759 197.591 30.0524 198.025 30.1762L198.809 30.424C198.933 30.4577 198.994 30.5816 198.994 30.7054V33.7681C198.994 34.2692 198.403 34.5507 197.557 34.5507H187.891C185.513 34.5507 184.825 34.5845 184.825 32.3944V16.2704C184.825 14.9586 184.199 14.4294 182.852 14.2098C182.384 14.0859 182.103 13.9902 182.26 13.6468L182.508 13.0557C182.632 12.7742 182.852 12.6785 183.038 12.6785H196.678C197.27 12.6785 197.647 13.0219 197.585 13.461V15.9607C197.585 16.0564 197.523 16.1465 197.428 16.2422L196.864 16.7095C196.396 17.0867 195.923 14.5532 193.832 14.5532H189.232V21.7989H189.244Z" fill="#1D2939"/>
</g>
<defs>
<linearGradient id="paint0_linear_135_1122" x1="16" y1="46.7583" x2="35.725" y2="12.0643" gradientUnits="userSpaceOnUse">
<stop stop-color="#26A0A5"/>
<stop offset="1" stop-color="#E7D66B"/>
</linearGradient>
<linearGradient id="paint1_linear_135_1122" x1="55.4647" y1="20.3715" x2="63.2852" y2="16.7312" gradientUnits="userSpaceOnUse">
<stop stop-color="#26A0A5"/>
<stop offset="1" stop-color="#E7D66B"/>
</linearGradient>
<linearGradient id="paint2_linear_135_1122" x1="60.7952" y1="33.2128" x2="67.8929" y2="30.8431" gradientUnits="userSpaceOnUse">
<stop stop-color="#26A0A5"/>
<stop offset="1" stop-color="#E7D66B"/>
</linearGradient>
<linearGradient id="paint3_linear_135_1122" x1="44.5033" y1="9.39181" x2="52.2583" y2="5.96827" gradientUnits="userSpaceOnUse">
<stop stop-color="#26A0A5"/>
<stop offset="1" stop-color="#E7D66B"/>
</linearGradient>
<linearGradient id="paint4_linear_135_1122" x1="3.45191" y1="33.2128" x2="10.5496" y2="30.8431" gradientUnits="userSpaceOnUse">
<stop stop-color="#26A0A5"/>
<stop offset="1" stop-color="#E7D66B"/>
</linearGradient>
<linearGradient id="paint5_linear_135_1122" x1="8.05794" y1="20.3715" x2="15.8785" y2="16.7312" gradientUnits="userSpaceOnUse">
<stop stop-color="#26A0A5"/>
<stop offset="1" stop-color="#E7D66B"/>
</linearGradient>
<linearGradient id="paint6_linear_135_1122" x1="19.1288" y1="9.39742" x2="26.8838" y2="5.97388" gradientUnits="userSpaceOnUse">
<stop stop-color="#26A0A5"/>
<stop offset="1" stop-color="#E7D66B"/>
</linearGradient>
<linearGradient id="paint7_linear_135_1122" x1="31.4996" y1="4.24278" x2="39.2716" y2="-0.536624" gradientUnits="userSpaceOnUse">
<stop stop-color="#26A0A5"/>
<stop offset="1" stop-color="#E7D66B"/>
</linearGradient>
<linearGradient id="paint8_linear_135_1122" x1="21.8275" y1="26.7381" x2="55.808" y2="0.925189" gradientUnits="userSpaceOnUse">
<stop stop-color="#26A0A5"/>
<stop offset="1" stop-color="#E7D66B"/>
</linearGradient>
<clipPath id="clip0_135_1122">
<rect width="199" height="53" fill="white"/>
</clipPath>
</defs>
</svg>
